<?xml version="1.0" encoding="utf-8"?>
<!DOCTYPE svg PUBLIC "-//W3C//DTD SVG 1.1//EN" "http://www.w3.org/Graphics/SVG/1.1/DTD/svg11.dtd">

<svg xmlns="http://www.w3.org/2000/svg" xmlns:xlink="http://www.w3.org/1999/xlink" t="1684286926045" class="icon" viewBox="0 0 1024 1024" version="1.1" p-id="2612" width="200" height="200">
  <path d="M512 970.666667c-28.586667 0-57.6-7.253333-83.2-22.186667L175.36 802.133333c-51.2-29.866667-83.2-84.906667-83.2-144.213333V366.08c0-59.306667 32-114.346667 83.2-144.213333l253.44-146.346667c51.2-29.866667 114.773333-29.866667 166.4 0l253.44 146.346667c51.2 29.866667 83.2 84.906667 83.2 144.213333v291.84c0 59.306667-32 114.346667-83.2 144.213333l-253.44 146.346667c-25.6 14.933333-54.613333 22.186667-83.2 22.186667z m0-853.333334c-17.493333 0-35.413333 4.693333-51.2 13.653334L207.36 277.333333c-31.573333 18.346667-51.2 52.053333-51.2 88.746667v291.84c0 36.266667 19.626667 70.4 51.2 88.746667l253.44 146.346666c31.573333 18.346667 70.826667 18.346667 102.4 0l253.44-146.346666c31.573333-18.346667 51.2-52.053333 51.2-88.746667V366.08c0-36.266667-19.626667-70.4-51.2-88.746667L563.2 130.986667c-15.786667-8.96-33.706667-13.653333-51.2-13.653334z" fill="#292D32" p-id="2613"/>
  <path d="M512.085333 501.333333c-72.533333 0-131.413333-58.88-131.413333-131.413333 0-72.533333 58.88-131.413333 131.413333-131.413333 72.533333 0 131.413333 58.88 131.413334 131.413333 0 72.533333-58.88 131.413333-131.413334 131.413333z m0-198.826666c-37.12 0-67.413333 30.293333-67.413333 67.413333 0 37.12 30.293333 67.413333 67.413333 67.413333 37.12 0 67.413333-30.293333 67.413334-67.413333 0-37.12-30.293333-67.413333-67.413334-67.413333zM682.666667 742.826667c-17.493333 0-32-14.506667-32-32 0-58.88-62.293333-107.093333-138.666667-107.093334s-138.666667 48.213333-138.666667 107.093334c0 17.493333-14.506667 32-32 32s-32-14.506667-32-32c0-94.293333 90.88-171.093333 202.666667-171.093334s202.666667 76.8 202.666667 171.093334c0 17.493333-14.506667 32-32 32z" fill="#292D32" p-id="2614"/>
</svg>
